<?xml version="1.0" standalone="no"?>
<!DOCTYPE svg PUBLIC "-//W3C//DTD SVG 20010904//EN"
 "http://www.w3.org/TR/2001/REC-SVG-20010904/DTD/svg10.dtd">
<svg version="1.0" xmlns="http://www.w3.org/2000/svg"
 width="1920.000000pt" height="300.000000pt" viewBox="0 0 1920.000000 300.000000"
 preserveAspectRatio="xMidYMid meet">

<g transform="translate(0.000000,300.000000) scale(0.100000,-0.100000)"
fill="#000000" stroke="none">
<path d="M0 1500 l0 -1500 9600 0 9600 0 0 1500 0 1500 -9600 0 -9600 0 0
-1500z m8612 292 c3 -800 4 -860 21 -885 33 -51 62 -62 181 -67 l111 -5 3
-182 2 -183 -113 0 c-195 0 -321 45 -430 152 -74 73 -122 172 -136 281 -12 87
-16 1729 -4 1740 3 4 86 7 184 7 l179 0 2 -858z m878 -232 l0 -1090 -185 0
-185 0 0 1090 0 1090 185 0 185 0 0 -1090z m-8876 950 c29 -14 243 -231 716
-725 l675 -705 3 710 2 710 185 0 185 0 0 -960 c0 -944 0 -961 -20 -1000 -25
-48 -80 -87 -138 -96 -94 -15 -71 -36 -808 734 -373 389 -681 709 -686 710 -4
2 -8 -316 -8 -707 l0 -711 -185 0 -185 0 2 964 3 964 30 44 c35 49 102 88 154
88 19 0 53 -9 75 -20z m3294 -525 c180 -43 322 -177 368 -350 21 -76 20 -709
-1 -788 -47 -180 -176 -315 -344 -359 -57 -14 -121 -17 -461 -17 -434 -1 -481
4 -587 57 -117 59 -212 171 -247 291 -20 70 -21 218 -1 296 37 140 132 258
259 320 97 48 194 57 581 53 l310 -3 0 -175 0 -175 -365 -5 c-264 -4 -371 -8
-387 -17 -39 -23 -64 -78 -64 -139 0 -69 18 -99 81 -131 43 -23 50 -23 410
-23 407 0 412 1 457 69 23 33 23 38 23 346 0 308 0 313 -23 346 -46 69 -43 69
-514 69 l-423 0 0 175 0 175 433 0 c345 0 445 -3 495 -15z m1012 -561 l0 -577
64 7 c305 31 640 340 867 801 38 77 85 185 104 240 l35 100 194 3 195 2 -28
-82 c-106 -311 -260 -608 -423 -820 -308 -398 -677 -606 -1108 -625 -115 -5
-129 -4 -168 16 -24 12 -54 39 -69 63 l-28 42 -3 703 -3 703 186 0 185 0 0
-576z m2688 561 c180 -43 322 -177 368 -350 21 -76 20 -709 -1 -788 -47 -180
-176 -315 -344 -359 -57 -14 -121 -17 -461 -17 -434 -1 -481 4 -587 57 -117
59 -212 171 -247 291 -20 70 -21 218 -1 296 37 140 132 258 259 320 97 48 194
57 581 53 l310 -3 0 -175 0 -175 -365 -5 c-264 -4 -371 -8 -387 -17 -39 -23
-64 -78 -64 -139 0 -69 18 -99 81 -131 43 -23 50 -23 410 -23 407 0 412 1 457
69 23 33 23 38 23 346 0 308 0 313 -23 346 -46 69 -43 69 -514 69 l-423 0 0
175 0 175 433 0 c345 0 445 -3 495 -15z m2874 -16 c166 -64 264 -168 312 -328
14 -47 16 -129 16 -613 l0 -558 -180 0 -179 0 -3 533 c-3 486 -5 535 -21 564
-34 62 -39 63 -432 63 l-355 0 0 186 0 185 388 -3 387 -3 67 -26z m1816 16
c180 -43 322 -177 368 -350 21 -76 20 -709 -1 -788 -47 -180 -176 -315 -344
-359 -57 -14 -121 -17 -461 -17 -434 -1 -481 4 -587 57 -117 59 -212 171 -247
291 -20 70 -21 218 -1 296 37 140 132 258 259 320 97 48 194 57 581 53 l310
-3 0 -175 0 -175 -365 -5 c-264 -4 -371 -8 -387 -17 -39 -23 -64 -78 -64 -139
0 -69 18 -99 81 -131 43 -23 50 -23 410 -23 407 0 412 1 457 69 23 33 23 38
23 346 0 308 0 313 -23 346 -46 69 -43 69 -514 69 l-423 0 0 175 0 175 433 0
c345 0 445 -3 495 -15z"/>
</g>
</svg>
